<svg width="136" height="174" viewBox="0 0 136 174" fill="none" xmlns="http://www.w3.org/2000/svg">
<g filter="url(#filter0_d_3009_2932)">
<rect y="17.1631" width="103.222" height="151.474" rx="10" transform="rotate(-9.57127 0 17.1631)" fill="#FAF8F1"/>
<rect x="0.576177" y="17.573" width="102.222" height="150.474" rx="9.5" transform="rotate(-9.57127 0.576177 17.573)" stroke="#AE3E3D"/>
</g>
<rect x="10.4834" y="23.2154" width="85.6613" height="135.857" rx="9" transform="rotate(-9.57127 10.4834 23.2154)" stroke="#D94F67" stroke-width="2"/>
<g clip-path="url(#clip0_3009_2932)">
<path d="M61.6113 77.1365C57.9662 77.8583 55.5805 81.422 56.3023 85.0671C57.024 88.7122 60.5877 91.0979 64.2328 90.3761C67.8779 89.6544 70.2636 86.0907 69.5418 82.4456C68.8201 78.8005 65.2564 76.4148 61.6113 77.1365ZM82.7765 79.825C82.2337 77.0838 81.7206 74.3624 81.0249 71.6566C80.2416 68.5088 78.958 65.8316 76.1737 63.9676C73.3835 62.0997 70.4251 61.9372 67.2163 62.4125C64.4446 62.8014 61.733 63.3641 58.9967 63.9059C56.2554 64.4487 53.5341 64.9617 50.8282 65.6575C47.6804 66.4407 45.0033 67.7243 43.1393 70.5086C41.2714 73.2989 41.1089 76.2572 41.5842 79.466C41.9731 82.2378 42.5358 84.9493 43.0776 87.6856C43.6194 90.4219 44.1334 93.1483 44.8292 95.8541C45.6124 99.0019 46.896 101.679 49.6803 103.543C52.4706 105.411 55.4289 105.573 58.6377 105.098C61.4095 104.709 64.121 104.147 66.8573 103.605C69.5986 103.062 72.32 102.549 75.0258 101.853C78.1736 101.07 80.8508 99.7864 82.7147 97.002C84.5826 94.2118 84.7452 91.2534 84.2698 88.0446C83.8869 85.2769 83.3192 82.5663 82.7765 79.825ZM64.9388 93.9418C59.3023 95.0578 53.8527 91.4096 52.7366 85.7731C51.6206 80.1366 55.2688 74.6869 60.9053 73.5709C66.5418 72.4548 71.9914 76.103 73.1075 81.7395C74.2236 87.3761 70.5753 92.8257 64.9388 93.9418ZM71.8963 73.4331C70.5803 73.6937 69.3071 72.8414 69.0465 71.5254C68.7859 70.2094 69.6383 68.9362 70.9543 68.6756C72.2703 68.415 73.5435 69.2673 73.804 70.5833C73.8663 70.8958 73.8663 71.2174 73.8041 71.5298C73.7419 71.8422 73.6186 72.1393 73.4414 72.404C73.2642 72.6688 73.0365 72.8959 72.7714 73.0725C72.5062 73.2491 72.2088 73.3716 71.8963 73.4331Z" fill="#D94F67"/>
</g>
<defs>
<filter id="filter0_d_3009_2932" x="1.52148" y="1.5225" width="133.928" height="172.484" filterUnits="userSpaceOnUse" color-interpolation-filters="sRGB">
<feFlood flood-opacity="0" result="BackgroundImageFix"/>
<feColorMatrix in="SourceAlpha" type="matrix" values="0 0 0 0 0 0 0 0 0 0 0 0 0 0 0 0 0 0 127 0" result="hardAlpha"/>
<feOffset dx="6" dy="5"/>
<feGaussianBlur stdDeviation="2"/>
<feComposite in2="hardAlpha" operator="out"/>
<feColorMatrix type="matrix" values="0 0 0 0 0 0 0 0 0 0 0 0 0 0 0 0 0 0 0.25 0"/>
<feBlend mode="normal" in2="BackgroundImageFix" result="effect1_dropShadow_3009_2932"/>
<feBlend mode="normal" in="SourceGraphic" in2="effect1_dropShadow_3009_2932" result="shape"/>
</filter>
<clipPath id="clip0_3009_2932">
<rect width="49.6733" height="49.6733" fill="white" transform="translate(34.1455 63.835) rotate(-11.2)"/>
</clipPath>
</defs>
</svg>
