<svg width="313" height="810" viewBox="0 0 313 810" fill="none" xmlns="http://www.w3.org/2000/svg">
<g filter="url(#filter0_d_3230_4123)">
<path d="M119.831 0.43457C132.141 0.22077 146.744 3.95803 156.031 12.332C164.886 3.9573 179.5 0.648873 191.91 1.07422C198.19 1.28949 203.952 2.46075 208.159 4.44922C212.349 6.42936 215.119 9.28673 215.119 12.9141C215.119 16.5224 212.313 19.7334 208.053 22.5205C203.768 25.324 197.884 27.7846 191.454 29.8613C178.59 34.0161 163.436 36.6653 154.241 37.4199L154.204 37.4229L154.167 37.4199C145.887 36.6649 131.649 34.015 119.472 29.8594C113.385 27.7822 107.787 25.3199 103.702 22.5146C99.6384 19.7237 96.9592 16.513 96.959 12.9141C96.959 8.8856 99.6386 5.80811 103.781 3.73438C107.924 1.66057 113.607 0.542694 119.831 0.43457Z" fill="url(#paint0_radial_3230_4123)" stroke="url(#paint1_linear_3230_4123)" stroke-width="0.851406"/>
<path d="M126.676 8.47559C136.628 8.35247 148.437 10.5192 155.89 15.3652C162.985 10.5187 174.797 8.59859 184.835 8.84375C189.886 8.96711 194.508 9.63869 197.875 10.7725C199.558 11.3391 200.941 12.0247 201.907 12.8262C202.874 13.6286 203.441 14.5638 203.441 15.6191C203.441 16.6733 202.863 17.6573 201.881 18.5654C200.899 19.4742 199.49 20.3293 197.771 21.1309C194.33 22.7349 189.598 24.1463 184.416 25.3389C174.048 27.7245 161.833 29.2456 154.426 29.6787L154.414 29.6797L154.4 29.6787C147.732 29.2455 136.256 27.7239 126.443 25.3379C121.538 24.1452 117.037 22.7336 113.757 21.1289C112.118 20.3269 110.773 19.4711 109.834 18.5615C108.896 17.6522 108.345 16.6696 108.345 15.6191C108.345 14.452 108.891 13.4263 109.841 12.5518C110.789 11.6802 112.147 10.9498 113.802 10.3594C117.115 9.17798 121.671 8.53753 126.676 8.47559Z" fill="url(#paint2_radial_3230_4123)" stroke="#E0B775" stroke-width="0.425703"/>
<rect x="19.2773" y="25.1421" width="273.419" height="766.419" rx="1.84471" fill="url(#paint3_radial_3230_4123)" stroke="#8D7350" stroke-width="1.41901"/>
<path d="M21.3472 711.426C21.4601 711.426 21.5691 711.471 21.6489 711.551C21.7286 711.631 21.7729 711.739 21.7729 711.852V715.083C22.5357 714.636 23.3441 714.398 24.1704 714.398C24.4053 714.399 24.596 714.589 24.5962 714.824V743.101C24.5962 743.106 24.5944 743.11 24.5942 743.115C24.5945 743.128 24.5952 743.144 24.5952 743.155V788.718H82.8237C82.8849 788.684 82.9548 788.663 83.0298 788.663H127.558C127.793 788.663 127.984 788.854 127.984 789.089C127.984 789.54 127.772 789.947 127.441 790.3C127.319 790.429 127.178 790.554 127.02 790.676H131.514C131.627 790.676 131.735 790.721 131.815 790.801C131.895 790.881 131.94 790.989 131.94 791.102C131.94 791.573 131.719 792.001 131.369 792.374C131.02 792.745 130.523 793.088 129.903 793.405C128.662 794.04 126.872 794.604 124.654 795.074C122.43 795.546 119.797 795.918 116.907 796.172C114.125 796.416 111.153 796.545 108.148 796.555C108.191 796.807 108.216 797.061 108.216 797.316C108.216 798.211 107.95 799.089 107.446 799.897C106.943 800.704 106.213 801.425 105.31 802.024C104.407 802.624 103.343 803.095 102.18 803.415C101.017 803.735 99.773 803.898 98.519 803.898C98.4632 803.898 98.4076 803.888 98.356 803.866L98.0347 803.733L97.1772 803.396C94.573 802.403 87.8435 800.064 79.0552 798.725C69.0082 797.193 56.2997 796.973 43.9927 801.531C37.3545 803.99 32.5589 804.616 29.0981 804.13C25.6169 803.64 23.4991 802.025 22.2495 800.062C21.0119 798.116 20.6495 795.867 20.5894 794.128C20.5502 792.996 20.6383 792.062 20.7065 791.538C20.507 791.518 20.2456 791.492 19.9331 791.455C19.1711 791.364 18.1025 791.218 16.8696 790.99C14.4101 790.536 11.2704 789.753 8.60596 788.431C5.95472 787.114 3.67478 785.212 3.11865 782.471C2.5615 779.724 3.77039 776.316 7.64795 772.083C11.4394 767.944 12.9412 764.046 13.1011 760.54C13.2612 757.028 12.0771 753.856 10.4028 751.173C8.728 748.489 6.57413 746.311 4.82861 744.798C3.95698 744.042 3.18978 743.455 2.64014 743.056C2.36541 742.856 2.14464 742.704 1.99268 742.601C1.91709 742.549 1.85832 742.51 1.81787 742.483C1.79999 742.472 1.77945 742.457 1.77002 742.451C1.76448 742.448 1.75833 742.444 1.75342 742.44C1.75114 742.439 1.74689 742.437 1.74268 742.434C1.74032 742.432 1.73512 742.428 1.73193 742.426C1.72628 742.421 1.70946 742.407 1.69775 742.396C1.61085 742.316 1.56103 742.202 1.56104 742.084C1.56114 741.215 1.84291 740.366 2.37158 739.589C2.89878 738.814 3.66039 738.124 4.6001 737.552C5.5404 736.979 6.64837 736.53 7.85791 736.225C9.06794 735.919 10.3619 735.763 11.6665 735.763C12.6555 735.763 13.6379 735.854 14.5825 736.03C14.1969 735.031 13.8741 733.948 13.6255 732.803C13.2213 730.941 13.0142 728.948 13.0142 726.938C13.0142 724.929 13.2213 722.936 13.6255 721.074C14.0295 719.213 14.6237 717.513 15.3784 716.073C16.1326 714.634 17.0393 713.47 18.0571 712.666C19.0777 711.86 20.1967 711.426 21.3472 711.426Z" fill="url(#paint4_radial_3230_4123)" stroke="url(#paint5_linear_3230_4123)" stroke-width="0.851406" stroke-linejoin="round"/>
<path d="M291.625 711.426C291.512 711.426 291.403 711.471 291.323 711.551C291.244 711.631 291.199 711.739 291.199 711.852V715.083C290.436 714.636 289.628 714.398 288.802 714.398C288.567 714.399 288.376 714.589 288.376 714.824V743.101C288.376 743.106 288.378 743.11 288.378 743.115C288.378 743.128 288.377 743.144 288.377 743.155V788.718H230.148C230.087 788.684 230.017 788.663 229.942 788.663H185.414C185.179 788.663 184.988 788.854 184.988 789.089C184.988 789.54 185.2 789.947 185.531 790.3C185.653 790.429 185.794 790.554 185.952 790.676H181.458C181.345 790.676 181.237 790.721 181.157 790.801C181.077 790.881 181.032 790.989 181.032 791.102C181.032 791.573 181.253 792.001 181.604 792.374C181.952 792.745 182.45 793.088 183.069 793.405C184.31 794.04 186.1 794.604 188.318 795.074C190.542 795.546 193.175 795.918 196.065 796.172C198.847 796.416 201.819 796.545 204.824 796.555C204.781 796.807 204.756 797.061 204.756 797.316C204.756 798.211 205.022 799.089 205.526 799.897C206.03 800.704 206.759 801.425 207.662 802.024C208.565 802.624 209.629 803.095 210.792 803.415C211.955 803.735 213.199 803.898 214.453 803.898C214.509 803.898 214.565 803.888 214.616 803.866L214.938 803.733L215.795 803.396C218.399 802.403 225.129 800.064 233.917 798.725C243.964 797.193 256.672 796.973 268.979 801.531C275.618 803.99 280.413 804.616 283.874 804.13C287.355 803.64 289.473 802.025 290.723 800.062C291.96 798.116 292.323 795.867 292.383 794.128C292.422 792.996 292.334 792.062 292.266 791.538C292.465 791.518 292.727 791.492 293.039 791.455C293.801 791.364 294.87 791.218 296.103 790.99C298.562 790.536 301.702 789.753 304.366 788.431C307.017 787.114 309.297 785.212 309.854 782.471C310.411 779.724 309.202 776.316 305.324 772.083C301.533 767.944 300.031 764.046 299.871 760.54C299.711 757.028 300.895 753.856 302.569 751.173C304.244 748.489 306.398 746.311 308.144 744.798C309.015 744.042 309.782 743.455 310.332 743.056C310.607 742.856 310.828 742.704 310.979 742.601C311.055 742.549 311.114 742.51 311.154 742.483C311.172 742.472 311.193 742.457 311.202 742.451C311.208 742.448 311.214 742.444 311.219 742.44C311.221 742.439 311.225 742.437 311.229 742.434C311.232 742.432 311.237 742.428 311.24 742.426C311.246 742.421 311.263 742.407 311.274 742.396C311.361 742.316 311.411 742.202 311.411 742.084C311.411 741.215 311.129 740.366 310.601 739.589C310.073 738.814 309.312 738.124 308.372 737.552C307.432 736.979 306.324 736.53 305.114 736.225C303.904 735.919 302.61 735.763 301.306 735.763C300.317 735.763 299.334 735.854 298.39 736.03C298.775 735.031 299.098 733.948 299.347 732.803C299.751 730.941 299.958 728.948 299.958 726.938C299.958 724.929 299.751 722.936 299.347 721.074C298.943 719.213 298.348 717.513 297.594 716.073C296.84 714.634 295.933 713.47 294.915 712.666C293.894 711.86 292.775 711.426 291.625 711.426Z" fill="url(#paint6_radial_3230_4123)" stroke="url(#paint7_linear_3230_4123)" stroke-width="0.851406" stroke-linejoin="round"/>
<path d="M21.3477 103.283C21.4606 103.283 21.5696 103.238 21.6494 103.158C21.7291 103.078 21.7734 102.97 21.7734 102.857V99.626C22.5362 100.073 23.3446 100.311 24.1709 100.311C24.4058 100.31 24.5965 100.12 24.5967 99.8848V71.6084C24.5967 71.6035 24.5949 71.5986 24.5947 71.5938C24.595 71.5809 24.5957 71.5652 24.5957 71.5537V25.9912H82.8242C82.8854 26.0252 82.9553 26.0459 83.0303 26.0459H127.559C127.794 26.0458 127.984 25.8552 127.984 25.6201C127.984 25.1693 127.773 24.762 127.441 24.4092C127.32 24.2799 127.179 24.155 127.021 24.0332H131.515C131.627 24.0332 131.736 23.988 131.815 23.9082C131.895 23.8284 131.94 23.7203 131.94 23.6074C131.94 23.136 131.719 22.7083 131.369 22.335C131.021 21.9637 130.523 21.6209 129.903 21.3037C128.663 20.6688 126.873 20.105 124.654 19.6348C122.431 19.1634 119.798 18.7909 116.907 18.5371C114.126 18.2929 111.154 18.1639 108.148 18.1543C108.191 17.9022 108.217 17.6482 108.217 17.3926C108.217 16.4977 107.95 15.6197 107.446 14.8115C106.943 14.0048 106.213 13.284 105.311 12.6846C104.408 12.085 103.343 11.6138 102.181 11.2939C101.018 10.974 99.7735 10.8106 98.5195 10.8105C98.4637 10.8105 98.4081 10.8214 98.3564 10.8428L98.0352 10.9756L97.1777 11.3125C94.5734 12.3061 87.844 14.6448 79.0557 15.9844C69.0087 17.5157 56.3002 17.7364 43.9932 13.1777C37.355 10.7188 32.5594 10.0927 29.0986 10.5791C25.6174 11.0685 23.4996 12.6836 22.25 14.6475C21.0124 16.5927 20.65 18.8416 20.5898 20.5811C20.5507 21.7128 20.6387 22.6467 20.707 23.1709C20.5075 23.191 20.2461 23.2167 19.9336 23.2539C19.1716 23.3445 18.103 23.4911 16.8701 23.7188C14.4106 24.1729 11.2709 24.9556 8.60645 26.2783C5.95521 27.5946 3.67527 29.497 3.11914 32.2383C2.56199 34.9851 3.77088 38.3925 7.64844 42.626C11.4399 46.7654 12.9417 50.663 13.1016 54.1689C13.2617 57.6812 12.0776 60.8526 10.4033 63.5361C8.72849 66.2204 6.57462 68.3983 4.8291 69.9111C3.95747 70.6666 3.19026 71.2541 2.64062 71.6533C2.3659 71.8529 2.14513 72.0053 1.99316 72.1084C1.91758 72.1597 1.85881 72.1988 1.81836 72.2256C1.80048 72.2374 1.77994 72.2516 1.77051 72.2578C1.76497 72.2615 1.75881 72.2652 1.75391 72.2686C1.75163 72.2701 1.74738 72.2724 1.74316 72.2754C1.7408 72.2771 1.73561 72.2808 1.73242 72.2832C1.72676 72.2875 1.70995 72.302 1.69824 72.3125C1.61133 72.3931 1.56152 72.5065 1.56152 72.625C1.56162 73.4941 1.84339 74.3427 2.37207 75.1201C2.89927 75.8953 3.66088 76.5849 4.60059 77.1572C5.54089 77.7299 6.64886 78.1792 7.8584 78.4844C9.06843 78.7896 10.3624 78.9463 11.667 78.9463C12.656 78.9463 13.6384 78.8553 14.583 78.6787C14.1974 79.6781 13.8746 80.7611 13.626 81.9062C13.2218 83.768 13.0147 85.7607 13.0146 87.7705C13.0147 89.7803 13.2218 91.773 13.626 93.6348C14.03 95.4955 14.6242 97.1957 15.3789 98.6357C16.1331 100.075 17.0398 101.239 18.0576 102.043C19.0782 102.849 20.1972 103.283 21.3477 103.283Z" fill="url(#paint8_radial_3230_4123)" stroke="url(#paint9_linear_3230_4123)" stroke-width="0.851406" stroke-linejoin="round"/>
<path d="M291.625 103.283C291.512 103.283 291.404 103.238 291.324 103.158C291.244 103.078 291.199 102.97 291.199 102.857V99.626C290.437 100.073 289.629 100.31 288.803 100.311C288.568 100.311 288.377 100.12 288.377 99.8848V71.6084C288.377 71.6061 288.378 71.6038 288.378 71.6016C288.378 71.5879 288.377 71.5676 288.377 71.5537V25.9912H230.148C230.087 26.0251 230.018 26.0458 229.943 26.0459H185.415C185.18 26.0459 184.989 25.8552 184.989 25.6201C184.989 25.1692 185.201 24.7621 185.532 24.4092C185.654 24.28 185.794 24.1549 185.952 24.0332H181.459C181.346 24.0332 181.237 23.988 181.157 23.9082C181.078 23.8284 181.033 23.7202 181.033 23.6074C181.033 23.1361 181.253 22.7082 181.604 22.335C181.952 21.9637 182.45 21.621 183.07 21.3037C184.311 20.6688 186.1 20.105 188.318 19.6348C190.542 19.1634 193.176 18.7909 196.066 18.5371C198.848 18.2929 201.819 18.1639 204.824 18.1543C204.781 17.9022 204.757 17.6481 204.757 17.3926C204.757 16.4977 205.022 15.6197 205.526 14.8115C206.03 14.0049 206.759 13.284 207.662 12.6846C208.565 12.085 209.63 11.6138 210.793 11.2939C211.956 10.9741 213.2 10.8106 214.454 10.8105C214.51 10.8106 214.565 10.8215 214.616 10.8428L214.94 10.9766V10.9775C216.528 11.6215 223.879 14.4544 233.917 15.9844C243.964 17.5157 256.673 17.7365 268.98 13.1777C275.618 10.719 280.413 10.0927 283.874 10.5791C287.356 11.0685 289.474 12.6834 290.724 14.6475C291.961 16.5927 292.324 18.8416 292.384 20.5811C292.423 21.7128 292.334 22.6467 292.266 23.1709C292.465 23.191 292.726 23.2167 293.039 23.2539C293.801 23.3445 294.87 23.4911 296.103 23.7188C298.562 24.1729 301.702 24.9555 304.366 26.2783C307.018 27.5946 309.298 29.4968 309.854 32.2383C310.412 34.9851 309.202 38.3925 305.324 42.626C301.533 46.7654 300.031 50.6631 299.871 54.1689C299.711 57.6811 300.895 60.8526 302.569 63.5361C304.244 66.2207 306.399 68.3982 308.145 69.9111C309.016 70.6665 309.782 71.2541 310.332 71.6533C310.607 71.8529 310.828 72.0053 310.979 72.1084C311.055 72.1599 311.115 72.1988 311.155 72.2256C311.173 72.2375 311.194 72.2516 311.203 72.2578C311.208 72.2614 311.214 72.2653 311.219 72.2686H311.217C311.22 72.2704 311.223 72.2716 311.226 72.2734C311.227 72.2742 311.228 72.2745 311.229 72.2754C311.232 72.277 311.237 72.2808 311.24 72.2832C311.246 72.2874 311.264 72.302 311.275 72.3125L311.274 72.3135C311.278 72.3171 311.283 72.3195 311.287 72.3232C311.367 72.4031 311.412 72.5121 311.412 72.625C311.412 73.4943 311.13 74.343 310.602 75.1201C310.074 75.8953 309.312 76.5848 308.372 77.1572C307.432 77.7299 306.324 78.1792 305.114 78.4844C303.904 78.7896 302.61 78.9463 301.306 78.9463C300.317 78.9463 299.335 78.8552 298.391 78.6787C298.776 79.6781 299.099 80.7611 299.348 81.9062C299.752 83.768 299.959 85.7607 299.959 87.7705C299.959 89.7803 299.752 91.773 299.348 93.6348C298.944 95.4957 298.349 97.1956 297.594 98.6357C296.84 100.075 295.933 101.239 294.915 102.043C293.894 102.849 292.776 103.283 291.625 103.283Z" fill="url(#paint10_radial_3230_4123)" stroke="url(#paint11_linear_3230_4123)" stroke-width="0.851406" stroke-linejoin="round"/>
<path d="M119.805 768.732C132.322 768.506 147.119 772.514 156.338 781.371L156.64 781.661L156.936 781.363C165.679 772.521 180.461 768.958 193.104 769.409C199.419 769.634 205.154 770.86 209.294 772.896C213.448 774.937 215.89 777.732 215.89 781.064C215.89 784.415 213.37 787.583 209.083 790.501C204.816 793.404 198.913 795.98 192.401 798.168C179.396 802.537 164.064 805.325 154.766 806.122C146.399 805.324 132.007 802.536 119.707 798.17C113.544 795.983 107.933 793.409 103.871 790.507C99.7911 787.593 97.3755 784.423 97.3755 781.063C97.3756 777.255 99.7917 774.242 103.849 772.13C107.91 770.016 113.551 768.845 119.805 768.732Z" fill="url(#paint12_radial_3230_4123)" stroke="url(#paint13_linear_3230_4123)" stroke-width="0.851406"/>
<path d="M122.334 760.865C134.026 760.638 147.885 764.627 156.629 773.527C164.952 764.626 178.818 761.09 190.611 761.542C196.547 761.769 201.98 763.007 205.938 765.097C209.892 767.185 212.413 770.149 212.413 773.836C212.413 777.514 209.846 780.85 205.814 783.797C201.775 786.749 196.219 789.347 190.133 791.543C177.959 795.935 163.615 798.737 154.916 799.534L154.896 799.536L154.875 799.534C147.043 798.736 133.567 795.934 122.045 791.541C116.284 789.345 110.999 786.746 107.15 783.793C103.307 780.844 100.854 777.509 100.854 773.835C100.854 769.71 103.306 766.517 107.203 764.338C111.096 762.161 116.452 760.979 122.334 760.865Z" fill="url(#paint14_radial_3230_4123)" stroke="#E0B775" stroke-width="0.425703"/>
<path d="M29.9868 37.8516H281.987V780.852H29.9868V37.8516Z" fill="#8D7350"/>
</g>
<defs>
<filter id="filter0_d_3230_4123" x="4.54187e-05" y="0" width="312.973" height="809.389" filterUnits="userSpaceOnUse" color-interpolation-filters="sRGB">
<feFlood flood-opacity="0" result="BackgroundImageFix"/>
<feColorMatrix in="SourceAlpha" type="matrix" values="0 0 0 0 0 0 0 0 0 0 0 0 0 0 0 0 0 0 127 0" result="hardAlpha"/>
<feOffset dy="1.70281"/>
<feGaussianBlur stdDeviation="0.567604"/>
<feComposite in2="hardAlpha" operator="out"/>
<feColorMatrix type="matrix" values="0 0 0 0 0 0 0 0 0 0 0 0 0 0 0 0 0 0 0.25 0"/>
<feBlend mode="normal" in2="BackgroundImageFix" result="effect1_dropShadow_3230_4123"/>
<feBlend mode="normal" in="SourceGraphic" in2="effect1_dropShadow_3230_4123" result="shape"/>
</filter>
<radialGradient id="paint0_radial_3230_4123" cx="0" cy="0" r="1" gradientTransform="matrix(-1.84335 27.6021 -89.5843 -0.391214 156.039 18.9237)" gradientUnits="userSpaceOnUse">
<stop stop-color="#E0B775"/>
<stop offset="1" stop-color="#8D7350"/>
</radialGradient>
<linearGradient id="paint1_linear_3230_4123" x1="155.959" y1="-5.25991" x2="155.959" y2="19.0439" gradientUnits="userSpaceOnUse">
<stop stop-color="#E0B775"/>
<stop offset="1" stop-color="#8D7350"/>
</linearGradient>
<radialGradient id="paint2_radial_3230_4123" cx="0" cy="0" r="1" gradientTransform="matrix(-1.48762 15.8712 -72.2961 -0.224948 155.893 19.0751)" gradientUnits="userSpaceOnUse">
<stop stop-color="#E0B775"/>
<stop offset="1" stop-color="#8D7350"/>
</radialGradient>
<radialGradient id="paint3_radial_3230_4123" cx="0" cy="0" r="1" gradientTransform="matrix(-4.27414 584.204 -207.717 -8.28012 155.987 408.352)" gradientUnits="userSpaceOnUse">
<stop stop-color="#E0B775"/>
<stop offset="1" stop-color="#8D7350"/>
</radialGradient>
<radialGradient id="paint4_radial_3230_4123" cx="0" cy="0" r="1" gradientTransform="matrix(44.9829 -46.0839 66.1263 65.1085 31.9748 803.84)" gradientUnits="userSpaceOnUse">
<stop stop-color="#E0B775"/>
<stop offset="1" stop-color="#8D7350"/>
</radialGradient>
<linearGradient id="paint5_linear_3230_4123" x1="63.1394" y1="737.124" x2="19.9992" y2="798.954" gradientUnits="userSpaceOnUse">
<stop stop-color="#8D7350"/>
<stop offset="1" stop-color="#E0B775"/>
</linearGradient>
<radialGradient id="paint6_radial_3230_4123" cx="0" cy="0" r="1" gradientTransform="matrix(-44.9829 -46.0839 -66.1263 65.1085 280.997 803.84)" gradientUnits="userSpaceOnUse">
<stop stop-color="#E0B775"/>
<stop offset="1" stop-color="#8D7350"/>
</radialGradient>
<linearGradient id="paint7_linear_3230_4123" x1="249.833" y1="737.124" x2="292.973" y2="798.954" gradientUnits="userSpaceOnUse">
<stop stop-color="#8D7350"/>
<stop offset="1" stop-color="#E0B775"/>
</linearGradient>
<radialGradient id="paint8_radial_3230_4123" cx="0" cy="0" r="1" gradientTransform="matrix(24.3608 -51.4642 -71.713 -37.4461 40.3546 38.0572)" gradientUnits="userSpaceOnUse">
<stop stop-color="#E0B775"/>
<stop offset="1" stop-color="#8D7350"/>
</radialGradient>
<linearGradient id="paint9_linear_3230_4123" x1="25.2133" y1="6.43093" x2="68.0583" y2="68.4214" gradientUnits="userSpaceOnUse">
<stop stop-color="#E0B775"/>
<stop offset="1" stop-color="#8D7350"/>
</linearGradient>
<radialGradient id="paint10_radial_3230_4123" cx="0" cy="0" r="1" gradientTransform="matrix(-39.7961 -40.4703 55.8031 -59.9252 288.054 27.0633)" gradientUnits="userSpaceOnUse">
<stop stop-color="#E0B775"/>
<stop offset="1" stop-color="#8D7350"/>
</radialGradient>
<linearGradient id="paint11_linear_3230_4123" x1="290.7" y1="10.949" x2="244.658" y2="90.4157" gradientUnits="userSpaceOnUse">
<stop stop-color="#E0B775"/>
<stop offset="1" stop-color="#8D7350"/>
</linearGradient>
<radialGradient id="paint12_radial_3230_4123" cx="0" cy="0" r="1" gradientTransform="matrix(-1.87569 29.2123 -91.156 -0.414035 156.633 787.424)" gradientUnits="userSpaceOnUse">
<stop stop-color="#E0B775"/>
<stop offset="1" stop-color="#8D7350"/>
</radialGradient>
<linearGradient id="paint13_linear_3230_4123" x1="161.043" y1="772.816" x2="159.346" y2="800.823" gradientUnits="userSpaceOnUse">
<stop stop-color="#8D7350"/>
<stop offset="1" stop-color="#E0B775"/>
</linearGradient>
<radialGradient id="paint14_radial_3230_4123" cx="0" cy="0" r="1" gradientTransform="matrix(-1.74634 29.2123 -84.8693 -0.414035 156.633 780.196)" gradientUnits="userSpaceOnUse">
<stop stop-color="#E0B775"/>
<stop offset="1" stop-color="#8D7350"/>
</radialGradient>
</defs>
</svg>
