<svg width="690" height="362" viewBox="0 0 690 362" fill="none" xmlns="http://www.w3.org/2000/svg">
<path d="M570.812 86.0975L565.91 76.2257C565.91 76.2257 362.187 183.717 300.83 192.795C174.552 272.451 39.9026 337.431 39.9026 337.431L44.8048 347.302C44.8048 347.302 221.592 251.151 309.885 230.733C368.427 187.122 570.812 86.0975 570.812 86.0975Z" fill="url(#paint0_linear_3939_3286)"/>
<path d="M595.501 116.358C633.12 97.8264 644.329 56.8634 642.41 42.3997C632.723 33.3036 594.025 18.4675 556.406 36.9995C514.041 57.8692 522.691 87.5079 556.797 86.4638C534.603 111.688 557.883 134.89 595.501 116.358Z" fill="url(#paint1_linear_3939_3286)"/>
<path d="M595.5 116.355C633.119 97.8232 644.328 56.8602 642.409 42.3965C614.039 97.7231 597.587 117.366 552.275 116.424C559.461 124.252 575.442 126.236 595.5 116.355Z" fill="#E38649"/>
<defs>
<linearGradient id="paint0_linear_3939_3286" x1="37.4079" y1="348.669" x2="557.003" y2="85.3692" gradientUnits="userSpaceOnUse">
<stop stop-color="#E0B775"/>
<stop offset="1" stop-color="#E38649"/>
</linearGradient>
<linearGradient id="paint1_linear_3939_3286" x1="643.021" y1="43.6397" x2="539.195" y2="94.7871" gradientUnits="userSpaceOnUse">
<stop stop-color="#E0B775"/>
<stop offset="1" stop-color="#E38649"/>
</linearGradient>
</defs>
</svg>
